<svg width="37" height="37" viewBox="0 0 37 37" fill="none" xmlns="http://www.w3.org/2000/svg">
<rect width="37" height="37" fill="#C0C0C0"/>
<g clip-path="url(#clip0_0_1)">
<rect width="1920" height="7971.53" transform="translate(-410 -1431)" fill="white"/>
<g clip-path="url(#clip1_0_1)">
<rect width="1920" height="7245.27" transform="translate(-410 -1291)" fill="white"/>
<g clip-path="url(#clip2_0_1)">
<path opacity="0.15" d="M1.70605 18.6249C1.70605 27.9304 9.31963 35.5439 18.6251 35.5439C27.9306 35.5439 35.5442 27.9304 35.5442 18.6249C35.5442 9.31939 27.9306 1.70581 18.6251 1.70581C9.31963 1.70581 1.70605 9.31939 1.70605 18.6249Z" stroke="#1E2D78" stroke-width="1.8799" stroke-miterlimit="10"/>
<path d="M1.70605 18.6249C1.70605 27.9304 9.31963 35.5439 18.6251 35.5439C27.9306 35.5439 35.5442 27.9304 35.5442 18.6249C35.5442 9.31939 27.9306 1.70581 18.6251 1.70581C9.31963 1.70581 1.70605 9.31939 1.70605 18.6249Z" stroke="#1E2D78" stroke-width="1.8799" stroke-miterlimit="10" stroke-dasharray="142.87 142.87"/>
<path d="M16.0869 23.7946L21.2566 18.6249L16.0869 13.5492" stroke="#1E2D78" stroke-width="1.40992" stroke-miterlimit="10"/>
</g>
</g>
</g>
<defs>
<clipPath id="clip0_0_1">
<rect width="1920" height="7971.53" fill="white" transform="translate(-410 -1431)"/>
</clipPath>
<clipPath id="clip1_0_1">
<rect width="1920" height="7971.53" fill="white" transform="translate(-410 -1431)"/>
</clipPath>
<clipPath id="clip2_0_1">
<rect width="36" height="36" fill="white" transform="translate(0.671875 0.671875)"/>
</clipPath>
</defs>
</svg>
